<?xml version="1.0" encoding="UTF-8"?>
<svg width="18px" height="18px" viewBox="0 0 18 18" version="1.1" xmlns="http://www.w3.org/2000/svg" xmlns:xlink="http://www.w3.org/1999/xlink">
    <title>icon_tcqp</title>
    <g id="页面-1" stroke="none" stroke-width="1" fill="none" fill-rule="evenodd">
        <g id="iPhone-8" transform="translate(-253.000000, -61.000000)">
            <g id="icon_tcqp" transform="translate(253.000000, 61.000000)">
                <rect id="矩形备份" x="0" y="0" width="18" height="18"></rect>
                <g transform="translate(1.000000, 1.000000)" fill="#FFFFFF" fill-rule="nonzero" id="形状">
                    <path d="M6.1481867,5.15916634 L6.13112633,0.749707211 C6.12356793,0.409921405 5.84286357,0.205952741 5.50205199,0.198358355 L5.04484113,0.198358355 C4.70507332,0.190799961 4.43523865,0.486621108 4.44274306,0.826082983 L4.461837,3.22409148 L1.43637382,0.247145989 C1.10751169,-0.0823819964 0.575364753,-0.0823819964 0.24648463,0.247145989 C-0.0813697115,0.576727963 -0.0813697115,1.10928881 0.24648463,1.43914073 L3.24419771,4.40644027 L0.946139975,4.41565431 C0.606372165,4.40707014 0.291187132,4.64251411 0.23961009,5.04370287 L0.23961009,5.4770508 C0.248194266,5.81748447 0.528934618,6.09896266 0.868702428,6.10641308 L5.25663813,6.08053458 C5.26315274,6.08116444 5.2675798,6.08361192 5.27333858,6.08361192 L5.5810732,6.09041448 C5.7509751,6.09448161 5.90320475,6.02802173 6.01159572,5.91777716 C6.12180431,5.80830642 6.16243967,5.65539291 6.15792263,5.48446522 L6.1251516,5.17604675 C6.12516959,5.17001803 6.14800674,5.1659329 6.14800674,5.15904037 L6.1481867,5.15916634 Z M12.7278767,11.5673528 L15.0228211,11.5581388 C15.3625889,11.5657151 15.6771081,11.3568875 15.729351,10.9557347 L15.729351,10.5224408 C15.7207488,10.1819172 15.4390007,9.90052895 15.1002587,9.89190878 L10.768543,9.9181472 C10.7617405,9.9181472 10.7576553,9.91542978 10.7511407,9.91542978 L10.44409,9.90787139 C10.2741881,9.90380425 10.1210586,9.97030012 10.0125416,10.0808326 C9.9017032,10.1893496 9.86207562,10.342839 9.8654589,10.5137667 L9.89930971,10.8215013 C9.89990358,10.8290597 9.87710242,10.8333967 9.87710242,10.8392455 L9.89484665,15.1807871 C9.90343083,15.5202489 10.1841892,15.7235877 10.523939,15.7310381 L10.9561532,15.731704 C11.2949672,15.7394963 11.5657556,15.4427754 11.5572794,15.1028996 L11.5381675,12.7564142 L14.5636307,15.7528135 C14.8925288,16.0823955 15.4240099,16.0823955 15.752908,15.7528135 C16.0814282,15.4233035 16.0814282,14.8906887 15.752908,14.5611427 L12.7278407,11.5671908 L12.7278767,11.5673528 Z M6.01136177,10.0809406 C5.90288082,9.97044409 5.74967937,9.90396622 5.58083925,9.90799736 L5.27303265,9.91555575 C5.26680597,9.91555575 5.26284681,9.91827318 5.25597227,9.91827318 L0.868324508,9.89203475 C0.528538702,9.90063692 0.247402435,10.1819891 0.239250167,10.5225128 L0.239250167,10.9558247 C0.290413296,11.3569955 0.605598329,11.5657511 0.944808258,11.5582287 L3.26915841,11.5657871 L0.24610671,14.559811 C-0.08203557,14.8883312 -0.08203557,15.4219358 0.24610671,15.7514818 C0.574644906,16.0810638 1.10713377,16.0810638 1.43568996,15.7514818 L4.46151307,12.7745903 L4.44209519,15.1354187 C4.4345368,15.4759423 4.70446145,15.7727173 5.04359939,15.7641691 L5.50081025,15.7641691 C5.84160384,15.7555849 6.12239818,15.5533799 6.12988459,15.2128203 L6.14764682,10.8388496 C6.14764682,10.8326229 6.12484566,10.8285738 6.12484566,10.8217712 L6.1576167,10.5139646 C6.16132391,10.3430909 6.12175032,10.1895835 6.01155973,10.0811026 L6.01136177,10.0809406 Z M10.0144672,5.918497 C10.1229842,6.02868759 10.2761496,6.09520146 10.4457456,6.09041448 L10.7527604,6.08361192 C10.7595629,6.08361192 10.763702,6.08123643 10.7705046,6.08019265 L15.1649909,6.10641308 C15.5047587,6.09860274 15.7855351,5.81707055 15.7940653,5.47665488 L15.795109,5.04334295 C15.7429561,4.64147033 15.4272852,4.40708813 15.0885791,4.41457454 L12.7567606,4.40537849 L15.752818,1.43793498 C16.082328,1.10977471 16.082328,0.577177868 15.7537898,0.24761389 C15.4248917,-0.0819140958 14.8934106,-0.0819140958 14.5645305,0.24761389 L11.5390673,3.24302346 L11.5584852,0.82656888 C11.5666554,0.487107005 11.295777,0.190314064 10.956981,0.197800474 L10.5247668,0.197800474 C10.184981,0.20638465 9.90418667,0.409669458 9.89567448,0.749149329 L9.87827218,5.15956225 C9.87827218,5.16636481 9.90078539,5.17050393 9.90078539,5.17662263 L9.8673305,5.4850411 C9.86387523,5.65598678 9.90344883,5.80881031 10.0144133,5.91835303 L10.0144672,5.918497 Z"></path>
                </g>
            </g>
        </g>
    </g>
</svg>