<?xml version="1.0" encoding="UTF-8"?>
<svg width="18px" height="18px" viewBox="0 0 18 18" version="1.1" xmlns="http://www.w3.org/2000/svg" xmlns:xlink="http://www.w3.org/1999/xlink">
    <title>icon_tcqp</title>
    <g id="页面-1" stroke="none" stroke-width="1" fill="none" fill-rule="evenodd">
        <g id="iPhone-8" transform="translate(-78.000000, -21.000000)">
            <g id="icon_tcqp" transform="translate(78.000000, 21.000000)">
                <rect id="矩形备份-10" x="0" y="0" width="18" height="18"></rect>
                <g id="icon_wyqp" transform="translate(1.000000, 1.000000)" fill="#FFFFFF">
                    <path d="M0,14.3998594 L0,1.59990625 C0,0.71621875 0.71640625,0 1.60007812,0 L14.4000312,0 C15.2837187,0 15.9999375,0.71621875 15.9999375,1.59990625 L15.9999375,14.3998906 C15.9999375,15.2835781 15.2837187,16 14.4000312,16 L1.60007812,16 C0.716421875,16 0,15.2835469 0,14.3998594 Z M13.967076,1.66 L2.03308428,1.66 C1.76927393,1.66 1.66,1.76925936 1.66,2.0328949 L1.66,13.9669157 C1.66,14.2307406 1.76927393,14.34 2.03308428,14.34 L14.34,14.34 L14.34,2.0328949 C14.34,1.76924479 14.2307552,1.66 13.967076,1.66 Z" id="形状" fill-rule="nonzero"></path>
                    <path d="M6.2,9 C6.28000001,9 6.44,9 6.52000001,9.08000001 C6.60000001,9.08000001 6.68000002,9.15999999 6.76000001,9.24 C6.84,9.32000001 6.92,9.39999999 6.92,9.48 C7.00000001,9.56000001 7.00000001,9.72 7.00000001,9.80000001 L7.00000001,9.80000001 L7.00000001,12.4 C7.00000001,12.88 6.68,13.2 6.2,13.2 C5.72,13.2 5.4,12.88 5.4,12.4 L5.4,12.4 L5.4,10.6 L3.60000001,10.6 C3.12000001,10.6 2.8,10.28 2.8,9.80000001 C2.8,9.32000001 3.12000001,9 3.60000001,9 L3.60000001,9 Z M12.4,9 C12.88,9 13.2,9.32000001 13.2,9.80000001 C13.2,10.28 12.88,10.6 12.4,10.6 L10.6,10.6 L10.6,12.4 C10.6,12.88 10.28,13.2 9.80000001,13.2 C9.32000001,13.2 9,12.88 9,12.4 L9,9.80000001 C9,9.72 9,9.56000001 9.08000001,9.48 C9.08000001,9.39999999 9.16000001,9.32000001 9.24,9.24 C9.31999999,9.15999999 9.39999999,9.08000001 9.48,9.08000001 C9.56000001,9 9.72,9 9.80000001,9 L12.4,9 Z M6.2,2.8 C6.68,2.8 7.00000001,3.12000001 7.00000001,3.60000001 L7.00000001,6.2 C7.00000001,6.28000001 7.00000001,6.44 6.92,6.52000001 C6.92,6.60000002 6.84,6.68 6.76000001,6.76000001 C6.68000002,6.84000001 6.60000001,6.92 6.52000001,6.92 C6.44,7.00000001 6.28000001,7.00000001 6.2,7.00000001 L3.60000001,7.00000001 C3.12000001,7.00000001 2.8,6.68 2.8,6.2 C2.8,5.72 3.12000001,5.4 3.60000001,5.4 L5.4,5.4 L5.4,3.60000001 C5.4,3.12000001 5.72,2.8 6.2,2.8 Z M9.80000001,2.8 C10.28,2.8 10.6,3.12000001 10.6,3.60000001 L10.6,3.60000001 L10.6,5.4 L12.4,5.4 C12.88,5.4 13.2,5.72 13.2,6.2 C13.2,6.68 12.88,7.00000001 12.4,7.00000001 L12.4,7.00000001 L9.80000001,7.00000001 C9.72,7.00000001 9.56000001,7.00000001 9.48,6.92 C9.39999999,6.92 9.31999999,6.84000001 9.24,6.76000001 C9.16000001,6.68 9.08000001,6.60000002 9.08000001,6.52000001 C9,6.44 9,6.28000001 9,6.2 L9,6.2 L9,3.60000001 C9,3.12000001 9.32000001,2.8 9.80000001,2.8 Z" id="形状结合"></path>
                </g>
            </g>
        </g>
    </g>
</svg>