<?xml version="1.0" standalone="no"?><!DOCTYPE svg PUBLIC "-//W3C//DTD SVG 1.1//EN" "http://www.w3.org/Graphics/SVG/1.1/DTD/svg11.dtd"><svg t="1626429400942" class="icon" viewBox="0 0 1024 1024" version="1.1" xmlns="http://www.w3.org/2000/svg" p-id="1323" xmlns:xlink="http://www.w3.org/1999/xlink" width="200" height="200"><defs><style type="text/css"></style></defs><path d="M380 97.2H218.2c-66.2 0-120 53.8-120 120V379c0 22.1 17.9 40 40 40s40-17.9 40-40V234.6L348 404.4c7.8 7.8 18 11.7 28.3 11.7 10.2 0 20.5-3.9 28.3-11.7 15.6-15.6 15.6-40.9 0-56.6L233.9 177.2H380c22.1 0 40-17.9 40-40s-17.9-40-40-40zM885.8 605c-22.1 0-40 17.9-40 40v144.4L676 619.6c-15.6-15.6-40.9-15.6-56.6 0s-15.6 40.9 0 56.6l170.7 170.7H644c-22.1 0-40 17.9-40 40s17.9 40 40 40h161.9c66.2 0 120-53.8 120-120V645c-0.1-22.1-18-40-40.1-40zM379 845.8H234.6L404.4 676c15.6-15.6 15.6-40.9 0-56.6-15.6-15.6-40.9-15.6-56.6 0L177.2 790.1V644c0-22.1-17.9-40-40-40s-40 17.9-40 40v161.9c0 66.2 53.8 120 120 120H379c22.1 0 40-17.9 40-40s-17.9-40.1-40-40.1zM806.8 98.2H645c-22.1 0-40 17.9-40 40s17.9 40 40 40h144.4L619.6 348c-15.6 15.6-15.6 40.9 0 56.6 7.8 7.8 18 11.7 28.3 11.7 10.2 0 20.5-3.9 28.3-11.7l170.7-170.7V380c0 22.1 17.9 40 40 40s40-17.9 40-40V218.2c-0.1-66.2-53.9-120-120.1-120z" p-id="1324"></path></svg>