<?xml version="1.0" encoding="UTF-8"?>
<svg width="18px" height="18px" viewBox="0 0 18 18" version="1.1" xmlns="http://www.w3.org/2000/svg" xmlns:xlink="http://www.w3.org/1999/xlink">
    <title>icon_qp</title>
    <g id="页面-1" stroke="none" stroke-width="1" fill="none" fill-rule="evenodd">
        <g id="iPhone-8" transform="translate(-218.000000, -61.000000)">
            <g id="icon_qp" transform="translate(218.000000, 61.000000)">
                <rect id="矩形" x="0" y="0" width="18" height="18"></rect>
                <g transform="translate(1.000000, 1.000000)" fill="#FFFFFF" fill-rule="nonzero" id="形状">
                    <path d="M15.2,16 L11.6,16 C11.12,16 10.8,15.68 10.8,15.2 C10.8,14.72 11.12,14.4 11.6,14.4 L13.28,14.4 L10.16,11.28 C9.83999999,10.96 9.83999999,10.48 10.16,10.16 C10.48,9.84000001 10.96,9.83999999 11.28,10.16 L14.4,13.28 L14.4,11.6 C14.4,11.12 14.72,10.8 15.2,10.8 C15.68,10.8 16,11.12 16,11.6 L16,15.2 C16,15.28 16,15.44 15.92,15.52 C15.92,15.6 15.84,15.68 15.76,15.76 C15.68,15.84 15.6,15.92 15.52,15.92 C15.44,16 15.28,16 15.2,16 Z M4.4,16 L0.800000006,16 C0.719999999,16 0.560000006,16 0.48,15.92 C0.399999993,15.92 0.320000006,15.84 0.24,15.76 C0.159999994,15.68 0.0800000062,15.6 0.0800000062,15.52 C0,15.44 0,15.28 0,15.2 L0,11.6 C0,11.12 0.320000006,10.8 0.800000006,10.8 C1.28000001,10.8 1.60000001,11.12 1.60000001,11.6 L1.60000001,13.28 L4.72000001,10.16 C5.04000001,9.83999999 5.52000001,9.83999999 5.84,10.16 C6.15999999,10.48 6.16000001,10.96 5.84,11.28 L2.72,14.4 L4.4,14.4 C4.88,14.4 5.20000001,14.72 5.20000001,15.2 C5.20000001,15.68 4.88,16 4.4,16 Z M10.72,6.08 C10.48,6.08 10.32,6 10.16,5.84 C9.83999999,5.52 9.83999999,5.04 10.16,4.72000001 L13.28,1.60000001 L11.6,1.60000001 C11.12,1.60000001 10.8,1.28000001 10.8,0.800000006 C10.8,0.320000006 11.12,-4.4408921e-16 11.6,-4.4408921e-16 L15.2,-4.4408921e-16 C15.28,-4.4408921e-16 15.44,-4.4408921e-16 15.52,0.0800000062 C15.6,0.0800000062 15.68,0.160000012 15.76,0.24 C15.84,0.319999987 15.92,0.399999993 15.92,0.48 C16,0.560000006 16,0.719999999 16,0.800000006 L16,4.4 C16,4.88 15.68,5.20000001 15.2,5.20000001 C14.72,5.20000001 14.4,4.88 14.4,4.4 L14.4,2.72 L11.28,5.84 C11.12,6 10.88,6.08 10.72,6.08 L10.72,6.08 Z M5.28,6.08 C5.04,6.08 4.88,6 4.72000001,5.84 L1.60000001,2.72 L1.60000001,4.4 C1.60000001,4.88 1.28000001,5.20000001 0.800000006,5.20000001 C0.320000006,5.20000001 0,4.88 0,4.4 L0,0.800000006 C0,0.719999999 0,0.560000006 0.0800000062,0.48 C0.0800000062,0.399999993 0.160000012,0.320000006 0.24,0.24 C0.319999987,0.159999994 0.399999993,0.0800000062 0.48,0.0800000062 C0.560000006,-4.4408921e-16 0.719999999,-4.4408921e-16 0.800000006,-4.4408921e-16 L4.4,-4.4408921e-16 C4.88,-4.4408921e-16 5.20000001,0.320000006 5.20000001,0.800000006 C5.20000001,1.28000001 4.88,1.60000001 4.4,1.60000001 L2.72,1.60000001 L5.84,4.72000001 C6.16000001,5.04000001 6.16000001,5.52000001 5.84,5.84 C5.68000001,6 5.52,6.08 5.28,6.08 L5.28,6.08 Z"></path>
                </g>
            </g>
        </g>
    </g>
</svg>