<?xml version="1.0" encoding="UTF-8"?>
<svg width="18px" height="18px" viewBox="0 0 18 18" version="1.1" xmlns="http://www.w3.org/2000/svg" xmlns:xlink="http://www.w3.org/1999/xlink">
    <title>icon_hzh</title>
    <g id="页面-1" stroke="none" stroke-width="1" fill="none" fill-rule="evenodd">
        <g id="iPhone-8" transform="translate(-288.000000, -61.000000)">
            <g id="icon_yhzh" transform="translate(288.000000, 61.000000)">
                <rect id="矩形备份-6" x="0" y="0" width="18" height="18"></rect>
                <g transform="translate(0.000000, 1.500000)" fill="#FFFFFF">
                    <path d="M14,0 C15.1045695,-2.02906125e-16 16,0.8954305 16,2 L16,7.659 L14.34,7.659 L14.34,2.66 C14.34,2.14716416 13.9539598,1.72449284 13.4566211,1.66672773 L13.34,1.66 L2.66,1.66 C2.10771525,1.66 1.66,2.10771525 1.66,2.66 L1.66,2.66 L1.66,10.34 C1.66,10.8922847 2.10771525,11.34 2.66,11.34 L2.66,11.34 L7.659,11.34 L7.659,13 L2,13 C0.8954305,13 1.3527075e-16,12.1045695 0,11 L0,2 C-1.3527075e-16,0.8954305 0.8954305,2.02906125e-16 2,0 L14,0 Z" id="形状结合"></path>
                    <rect id="矩形" x="8.87" y="8.87" width="9.13" height="6.13" rx="1.5"></rect>
                </g>
            </g>
        </g>
    </g>
</svg>