<?xml version="1.0" encoding="UTF-8"?>
<svg width="18px" height="18px" viewBox="0 0 18 18" version="1.1" xmlns="http://www.w3.org/2000/svg" xmlns:xlink="http://www.w3.org/1999/xlink">
    <title>icon_gbyl</title>
    <g id="页面-1" stroke="none" stroke-width="1" fill="none" fill-rule="evenodd">
        <g id="iPhone-8" transform="translate(-148.000000, -61.000000)">
            <g id="icon_gbyl" transform="translate(148.000000, 61.000000)">
                <rect id="矩形备份-4" x="0" y="0" width="18" height="18"></rect>
                <g transform="translate(1.000000, 1.000000)" fill="#FFFFFF" fill-rule="nonzero">
                    <path d="M1.882,4.284 L3.482,5.884 L1.6001084,5.88493423 L1.6001084,10.117221 L3.99307054,10.117221 L9.07981515,14.1814963 L9.079,11.481 L10.68,13.082 L10.6807236,14.575923 C10.6807236,15.1087591 10.391104,15.5927919 9.92467239,15.8392086 C9.46072422,16.0846014 8.89795239,16.0468149 8.4709739,15.741602 L8.47017385,15.7424021 L3.43223254,11.7181294 L1.40329508,11.7181294 C0.629642666,11.7181294 0,11.0780861 0,10.2940329 L0,5.70812225 C0,4.92246902 0.629642651,4.28402578 1.40329508,4.28402576 L1.882,4.284 Z M13.6873273,3.4535695 C16.3950119,6.33895693 16.7255697,9.3563042 14.6790005,12.2744527 L13.5283797,11.1240388 C14.9637376,8.91769099 14.6278938,6.79375844 12.5208483,4.54884371 C12.3162543,4.34126159 12.2400166,4.03972533 12.321746,3.76055187 C12.4034753,3.48137841 12.630292,3.26856277 12.9141001,3.20476276 C13.1979083,3.14096275 13.4939825,3.23623264 13.6873273,3.4535695 Z M9.92467239,0.161346456 C10.391104,0.406963098 10.6807236,0.891795943 10.6807236,1.42463204 L10.68,8.277 L9.079,6.676 L9.07981515,1.82465915 L6.397,3.994 L5.258,2.855 L8.4709739,0.258953072 C8.89768882,-0.0469951052 9.46088713,-0.0848102934 9.92467239,0.161346456 Z" id="形状结合"></path>
                    <path d="M2.1728,1.0356 L14.9648,13.8276 C15.27499,14.1422606 15.2731354,14.6482675 14.9606472,14.9606458 C14.6481589,15.2730241 14.1421514,15.2747007 13.8276,14.9644 L1.0356,2.1724 C0.73932756,1.8557529 0.747545194,1.36120328 1.05417424,1.05457424 C1.36080328,0.747945194 1.8553529,0.73972756 2.172,1.036 L2.1728,1.0356 Z" id="路径备份"></path>
                </g>
            </g>
        </g>
    </g>
</svg>