<?xml version="1.0" encoding="UTF-8"?>
<svg width="18px" height="18px" viewBox="0 0 18 18" version="1.1" xmlns="http://www.w3.org/2000/svg" xmlns:xlink="http://www.w3.org/1999/xlink">
    <title>icon_bf</title>
    <g id="页面-1" stroke="none" stroke-width="1" fill="none" fill-rule="evenodd">
        <g id="iPhone-8" transform="translate(-113.000000, -109.000000)">
            <g id="icon_bf" transform="translate(113.000000, 109.000000)">
                <rect id="矩形备份-10" x="0" y="0" width="18" height="18"></rect>
                <g transform="translate(3.000000, 1.000000)" fill="#FFFFFF" fill-rule="nonzero" id="形状">
                    <path d="M9.73026169,0 C8.81413554,0 8.01252516,0.799821069 8.01252516,1.71415791 L8.01252516,14.2858421 C8.01252516,15.2001789 8.81413554,16 9.73026169,16 C10.6463878,16 11.4479982,15.2001789 11.4479982,14.2858421 L11.4479982,1.71415791 C11.4479982,0.799821069 10.6463878,0 9.73026169,0 Z M1.71773652,0 C0.801610378,0 -6.50946778e-16,0.799821069 -6.50946778e-16,1.71415791 L-6.50946778e-16,14.2858421 C-6.50946778e-16,15.2001789 0.801610378,16 1.71773652,16 C2.63386267,16 3.43547305,15.2001789 3.43547305,14.2858421 L3.43547305,1.71415791 C3.43368374,0.799821069 2.63207336,0 1.71773652,0 Z"></path>
                </g>
            </g>
        </g>
    </g>
</svg>