<?xml version="1.0" encoding="UTF-8"?>
<svg width="18px" height="18px" viewBox="0 0 18 18" version="1.1" xmlns="http://www.w3.org/2000/svg" xmlns:xlink="http://www.w3.org/1999/xlink">
    <title>icon_zt</title>
    <g id="页面-1" stroke="none" stroke-width="1" fill="none" fill-rule="evenodd">
        <g id="iPhone-8" transform="translate(-78.000000, -109.000000)">
            <g id="icon_zt" transform="translate(78.000000, 109.000000)">
                <rect id="矩形备份-10" x="0" y="0" width="18" height="18"></rect>
                <g transform="translate(3.000000, 1.000000)" fill="#FFFFFF" fill-rule="nonzero" id="路径">
                    <path d="M0.992369212,15.8990308 C0.481836467,15.7736376 0.0929717158,15.3594445 6.48386882e-16,14.8420245 L6.48386882e-16,1.15417331 C0.0879382032,0.631910584 0.478007891,0.211950496 0.992369212,0.0857604795 C1.54075549,-0.0899263394 2.14010986,0.00761010376 2.6044939,0.348110961 L11.729728,7.19203656 C12.0075567,7.3666885 12.176164,7.67183527 12.176164,8 C12.176164,8.32816473 12.0075567,8.6333115 11.729728,8.80796344 L2.6044939,15.651889 C2.14010986,15.9923899 1.54075549,16.0899263 0.992369212,15.9142395 L0.992369212,15.8990308 Z"></path>
                </g>
            </g>
        </g>
    </g>
</svg>