<?xml version="1.0" standalone="no"?><!DOCTYPE svg PUBLIC "-//W3C//DTD SVG 1.1//EN" "http://www.w3.org/Graphics/SVG/1.1/DTD/svg11.dtd"><svg t="1629034274177" class="icon" viewBox="0 0 1024 1024" version="1.1" xmlns="http://www.w3.org/2000/svg" p-id="1471" xmlns:xlink="http://www.w3.org/1999/xlink" width="200" height="200"><defs><style type="text/css"></style></defs><path d="M874.144 262.56C735.232 79.104 471.264 41.6 285.76 178.912c-60.16 44.544-106.784 104.352-135.584 172.224l-21.696-73.92c-4.992-16.96-22.752-26.752-39.712-21.696C71.808 260.512 62.08 278.304 67.072 295.264l47.456 161.76C118.624 470.944 131.36 480 145.216 480c2.976 0 22.72-5.76 25.824-6.912l161.248-59.264c16.576-6.08 25.088-24.48 18.976-41.088-6.08-16.576-24.384-25.056-41.088-18.976l-107.968 39.68c23.424-64.576 65.568-121.632 121.6-163.104 157.376-116.576 381.376-84.768 499.296 70.848 56.832 75.008 80.8 167.456 67.488 260.256-13.376 93.28-62.784 175.712-139.072 232.192-157.536 116.512-381.568 84.736-499.392-70.72-10.688-14.112-30.72-16.864-44.832-6.176-14.08 10.656-16.832 30.752-6.176 44.8 82.464 108.832 208.992 166.24 337.024 166.24 87.68 0 176.032-26.912 251.456-82.72 90.144-66.72 148.512-164.224 164.352-274.528C969.792 460.704 941.44 351.328 874.144 262.56z" p-id="1472"></path></svg>