<?xml version="1.0" encoding="UTF-8"?>
<svg width="18px" height="18px" viewBox="0 0 18 18" version="1.1" xmlns="http://www.w3.org/2000/svg" xmlns:xlink="http://www.w3.org/1999/xlink">
    <title>icon_xj</title>
    <g id="页面-1" stroke="none" stroke-width="1" fill="none" fill-rule="evenodd">
        <g id="iPhone-8" transform="translate(-148.000000, -109.000000)">
            <g id="icon_xj" transform="translate(148.000000, 110.000000)">
                <path d="M11.0584816,0.83 C11.3102833,0.83 11.5479599,0.910563303 11.7425926,1.05084664 C11.9372253,1.19112998 12.0888143,1.39113336 12.168441,1.63001351 L12.168441,1.63001351 L12.7630014,3.41369464 L15.9529961,3.8309214 C16.2946546,3.81754316 16.6053644,3.95073452 16.8273149,4.17268507 C17.0390433,4.38441342 17.17,4.67691342 17.17,5 L17.17,5 L17.17,13 C17.17,13.3230866 17.0390433,13.6155866 16.8273149,13.8273149 C16.6155866,14.0390433 16.3230866,14.17 16,14.17 L16,14.17 L2,14.17 C1.67691342,14.17 1.38441342,14.0390433 1.17268507,13.8273149 C0.960956711,13.6155866 0.83,13.3230866 0.83,13 L0.83,13 L0.83,5 C0.83,4.67691342 0.960956711,4.38441342 1.17268507,4.17268507 C1.38441342,3.96095671 1.67691342,3.83 2,3.83 L2,3.83 L4.62862034,3.83 L5.81227593,1.69379445 C5.88490856,1.42670035 6.04569254,1.20344209 6.25740741,1.05084664 C6.45204015,0.910563303 6.68971665,0.83 6.94151844,0.83 L6.94151844,0.83 Z" id="路径-2" stroke="#FFFFFF" stroke-width="1.66"></path>
                <circle id="椭圆形" stroke="#FFFFFF" stroke-width="1.66" cx="9" cy="8" r="2.17"></circle>
                <circle id="椭圆形备份" fill="#FFFFFF" cx="14" cy="6" r="1"></circle>
            </g>
        </g>
    </g>
</svg>