<?xml version="1.0" standalone="no"?><!DOCTYPE svg PUBLIC "-//W3C//DTD SVG 1.1//EN" "http://www.w3.org/Graphics/SVG/1.1/DTD/svg11.dtd"><svg t="1627367550729" class="icon" viewBox="0 0 1024 1024" version="1.1" xmlns="http://www.w3.org/2000/svg" p-id="2010" xmlns:xlink="http://www.w3.org/1999/xlink" width="200" height="200"><defs><style type="text/css">@font-face { font-family: feedback-iconfont; src: url("//at.alicdn.com/t/font_1031158_1uhr8ri0pk5.eot?#iefix") format("embedded-opentype"), url("//at.alicdn.com/t/font_1031158_1uhr8ri0pk5.woff2") format("woff2"), url("//at.alicdn.com/t/font_1031158_1uhr8ri0pk5.woff") format("woff"), url("//at.alicdn.com/t/font_1031158_1uhr8ri0pk5.ttf") format("truetype"), url("//at.alicdn.com/t/font_1031158_1uhr8ri0pk5.svg#iconfont") format("svg"); }
</style></defs><path d="M512.25928 704c-108.8 0-192-83.2-192-192s83.2-192 192-192 192 83.2 192 192-83.2 192-192 192z m0-320c-70.4 0-128 57.6-128 128s57.6 128 128 128 128-57.6 128-128-57.6-128-128-128z" p-id="2011"></path><path d="M640.25928 1024H384.25928c-19.2 0-32-12.8-32-32v-121.6c-25.6-12.8-51.2-25.6-70.4-38.4l-102.4 64c-12.8 6.4-32 6.4-44.8-12.8l-128-224C-6.14072 640 0.25928 620.8 19.45928 614.4l102.4-64v-76.8l-102.4-64C0.25928 403.2-6.14072 384 6.65928 364.8l128-224c6.4-12.8 25.6-19.2 44.8-6.4l102.4 64c19.2-12.8 44.8-32 70.4-38.4V32c0-19.2 12.8-32 32-32h256c19.2 0 32 12.8 32 32v121.6c25.6 12.8 51.2 25.6 70.4 38.4l102.4-64c12.8-6.4 32-6.4 44.8 12.8l128 224c12.8 19.2 6.4 38.4-12.8 44.8l-102.4 64v76.8l102.4 64c12.8 6.4 19.2 25.6 12.8 44.8l-128 224c-6.4 12.8-25.6 19.2-44.8 12.8l-102.4-64c-19.2 12.8-44.8 32-70.4 38.4V992c0 19.2-12.8 32-32 32z m-224-64h192v-108.8c0-12.8 6.4-25.6 19.2-32 32-12.8 64-32 89.6-51.2 12.8-6.4 25.6-6.4 38.4 0l96 57.6 96-166.4-96-57.6c-12.8-12.8-19.2-25.6-12.8-38.4 0-19.2 6.4-32 6.4-51.2s0-32-6.4-51.2c0-12.8 6.4-25.6 12.8-32l96-57.6-96-166.4-96 57.6c-12.8 6.4-25.6 6.4-38.4 0-25.6-19.2-57.6-38.4-89.6-51.2-12.8-12.8-19.2-25.6-19.2-38.4V64H416.25928v108.8c0 12.8-6.4 25.6-19.2 32-32 12.8-64 32-89.6 51.2-12.8 6.4-25.6 6.4-38.4 0l-96-51.2-96 166.4 96 57.6c12.8 6.4 19.2 19.2 12.8 32 0 19.2-6.4 32-6.4 51.2 0 19.2 0 32 6.4 51.2 6.4 12.8 0 25.6-12.8 32l-96 57.6 96 166.4 96-57.6c12.8-6.4 25.6-6.4 38.4 0 25.6 19.2 57.6 38.4 89.6 51.2 12.8 6.4 19.2 19.2 19.2 32V960z" p-id="2012"></path></svg>