<?xml version="1.0" encoding="UTF-8"?>
<svg width="18px" height="18px" viewBox="0 0 18 18" version="1.1" xmlns="http://www.w3.org/2000/svg" xmlns:xlink="http://www.w3.org/1999/xlink">
    <title>icon_sz</title>
    <g id="页面-1" stroke="none" stroke-width="1" fill="none" fill-rule="evenodd">
        <g id="iPhone-8" transform="translate(-183.000000, -61.000000)">
            <g id="icon_sz" transform="translate(183.000000, 61.000000)">
                <rect id="矩形备份-3" x="0" y="0" width="18" height="18"></rect>
                <g transform="translate(1.000000, 1.000000)" fill="#FFFFFF" fill-rule="nonzero" id="形状">
                    <path d="M16,8.67446429 L16,7.32553571 C16,7.05316061 15.8077928,6.81863218 15.5407143,6.76517857 L13.7980357,6.41660714 C13.6014036,6.37680161 13.4398445,6.23718097 13.3719643,6.04839286 C13.3144643,5.88958333 13.25,5.73410714 13.1785714,5.58196429 C13.0929015,5.40035722 13.1083407,5.18718828 13.2192857,5.01982143 L14.2051786,3.54107143 C14.3562861,3.31441428 14.3263893,3.01260596 14.13375,2.82 L13.18,1.86625 C12.987394,1.67361075 12.6855857,1.64371394 12.4589286,1.79482143 L10.9801786,2.78071429 C10.8128117,2.8916593 10.5996428,2.90709848 10.4180357,2.82142857 C10.2660119,2.75 10.1104762,2.68559524 9.95142857,2.62821429 C9.76264046,2.56033408 9.62301981,2.39877498 9.58321429,2.20214286 L9.23464286,0.459285714 C9.18120242,0.192273064 8.94677226,0 8.67446429,0 L7.32553571,0 C7.05316061,0 6.81863218,0.192207246 6.76517857,0.459285714 L6.41660714,2.20196429 C6.37680161,2.39859641 6.23718097,2.56015551 6.04839286,2.62803571 C5.88958333,2.68553571 5.73410714,2.75 5.58196429,2.82142857 C5.40035722,2.90709848 5.18718828,2.8916593 5.01982143,2.78071429 L3.54107143,1.79482143 C3.31441428,1.64371394 3.01260596,1.67361075 2.82,1.86625 L1.86625,2.82 C1.67361075,3.01260596 1.64371394,3.31441428 1.79482143,3.54107143 L2.78071429,5.01982143 C2.8916593,5.18718828 2.90709848,5.40035722 2.82142857,5.58196429 C2.75,5.7339881 2.68559524,5.88952381 2.62821429,6.04857143 C2.56033408,6.23735954 2.39877498,6.37698019 2.20214286,6.41678571 L0.459285714,6.76535714 C0.192273064,6.81879758 0,7.05322774 0,7.32553571 L0,8.67428571 C0,8.94666082 0.192207246,9.18118924 0.459285714,9.23464286 L2.20196429,9.58321429 C2.39859641,9.62301981 2.56015551,9.76264046 2.62803571,9.95142857 C2.68553571,10.1103571 2.75,10.2658929 2.82142857,10.4180357 C2.90709848,10.5996428 2.8916593,10.8128117 2.78071429,10.9801786 L1.79482143,12.4589286 C1.64371394,12.6855857 1.67361075,12.987394 1.86625,13.18 L2.82,14.13375 C3.01260596,14.3263893 3.31441428,14.3562861 3.54107143,14.2051786 L5.01982143,13.2192857 C5.18718828,13.1083407 5.40035722,13.0929015 5.58196429,13.1785714 C5.7339881,13.25 5.88952381,13.3144048 6.04857143,13.3717857 C6.23735954,13.4396659 6.37698019,13.601225 6.41678571,13.7978571 L6.76535714,15.5405357 C6.81872326,15.8076194 7.05317271,16 7.32553571,16 L8.67428571,16 C8.94666082,16 9.18118924,15.8077928 9.23464286,15.5407143 L9.58321429,13.7980357 C9.62301981,13.6014036 9.76264046,13.4398445 9.95142857,13.3719643 C10.1103571,13.3144643 10.2658929,13.25 10.4180357,13.1785714 C10.5996428,13.0929015 10.8128117,13.1083407 10.9801786,13.2192857 L12.4589286,14.2051786 C12.6855857,14.3562861 12.987394,14.3263893 13.18,14.13375 L14.13375,13.18 C14.3263893,12.987394 14.3562861,12.6855857 14.2051786,12.4589286 L13.2192857,10.9801786 C13.1083407,10.8128117 13.0929015,10.5996428 13.1785714,10.4180357 C13.25,10.2660119 13.3144048,10.1104762 13.3717857,9.95142857 C13.4396659,9.76264046 13.601225,9.62301981 13.7978571,9.58321429 L15.5405357,9.23464286 C15.8076194,9.18127674 16,8.94682729 16,8.67446429 Z M10.4242857,10.4244643 C9.26765335,11.5810199 7.45510983,11.759488 6.09512057,10.8507258 C4.73513131,9.9419637 4.20646608,8.19907015 4.83243138,6.68791601 C5.45839669,5.17676186 7.06465532,4.31821771 8.6688959,4.63732834 C10.2731365,4.95643897 11.4285838,6.36432906 11.4285838,8 C11.4310195,8.90979114 11.0693876,9.78274895 10.4242857,10.4242857 L10.4242857,10.4244643 Z"></path>
                </g>
            </g>
        </g>
    </g>
</svg>