<?xml version="1.0" encoding="UTF-8"?>
<svg width="18px" height="18px" viewBox="0 0 18 18" version="1.1" xmlns="http://www.w3.org/2000/svg" xmlns:xlink="http://www.w3.org/1999/xlink">
    <title>icon_yl</title>
    <g id="页面-1" stroke="none" stroke-width="1" fill="none" fill-rule="evenodd">
        <g id="iPhone-8" transform="translate(-113.000000, -61.000000)">
            <g id="icon_yl" transform="translate(113.000000, 61.000000)">
                <rect id="矩形备份-5" x="0" y="0" width="18" height="18"></rect>
                <g transform="translate(1.000000, 1.000000)" fill="#FFFFFF" fill-rule="nonzero" id="形状">
                    <path d="M9.07981515,1.82465915 L4.78032386,5.30169472 L4.65871562,5.38970067 L3.91466522,5.88493423 L1.6001084,5.88493423 L1.6001084,10.117221 L3.99307054,10.117221 L9.07981515,14.1814963 L9.07981515,1.82465915 Z M8.47017385,15.7424021 L3.43223254,11.7181294 L1.40329508,11.7181294 C0.629642666,11.7181294 0,11.0780861 0,10.2940329 L0,5.70812225 C0,4.92246902 0.629642651,4.28402578 1.40329508,4.28402576 L3.43223254,4.28402576 L3.77465573,4.05601031 L8.4709739,0.258953072 C8.89768882,-0.0469951052 9.46088713,-0.0848102934 9.92467239,0.161346456 C10.391104,0.406963098 10.6807236,0.891795943 10.6807236,1.42463204 L10.6807236,14.575923 C10.6807236,15.1087591 10.391104,15.5927919 9.92467239,15.8392086 C9.46072422,16.0846014 8.89795239,16.0468149 8.4709739,15.741602 L8.47017385,15.7424021 Z M12.5208483,4.54804364 C12.3162543,4.34126159 12.2400166,4.03972533 12.321746,3.76055187 C12.4034753,3.48137841 12.630292,3.26856277 12.9141001,3.20476276 C13.1979083,3.14096275 13.4939825,3.23623264 13.6873273,3.4535695 C16.7715362,6.74019217 16.7715362,10.1980264 13.6873273,13.4854492 C13.3846547,13.8075634 12.8781649,13.8233241 12.5560507,13.5206515 C12.2339364,13.217979 12.2181757,12.7114892 12.5208483,12.3893749 C15.0274181,9.71879396 15.0274181,7.21942463 12.5208483,4.54884371 L12.5208483,4.54804364 Z"></path>
                </g>
            </g>
        </g>
    </g>
</svg>