<?xml version="1.0" encoding="UTF-8"?>
<svg width="18px" height="18px" viewBox="0 0 18 18" version="1.1" xmlns="http://www.w3.org/2000/svg" xmlns:xlink="http://www.w3.org/1999/xlink">
    <title>icon_wyqp</title>
    <g id="页面-1" stroke="none" stroke-width="1" fill="none" fill-rule="evenodd">
        <g id="iPhone-8" transform="translate(-78.000000, -61.000000)">
            <g id="icon_wyqp" transform="translate(78.000000, 61.000000)">
                <rect id="矩形备份-10" x="0" y="0" width="18" height="18"></rect>
                <g transform="translate(1.000000, 1.000000)" fill="#FFFFFF">
                    <path d="M0,14.3998594 L0,1.59990625 C0,0.71621875 0.71640625,0 1.60007812,0 L14.4000312,0 C15.2837187,0 15.9999375,0.71621875 15.9999375,1.59990625 L15.9999375,14.3998906 C15.9999375,15.2835781 15.2837187,16 14.4000312,16 L1.60007812,16 C0.716421875,16 0,15.2835469 0,14.3998594 Z M13.967076,1.66 L2.03308428,1.66 C1.76927393,1.66 1.66,1.76925936 1.66,2.0328949 L1.66,13.9669157 C1.66,14.2307406 1.76927393,14.34 2.03308428,14.34 L14.34,14.34 L14.34,2.0328949 C14.34,1.76924479 14.2307552,1.66 13.967076,1.66 Z" id="形状" fill-rule="nonzero"></path>
                    <path d="M3.60000001,9 C4.08000001,9 4.40000001,9.32000001 4.40000001,9.80000001 L4.40000001,9.80000001 L4.40000001,11.6 L6.2,11.6 C6.68,11.6 7.00000001,11.92 7.00000001,12.4 C7.00000001,12.88 6.68,13.2 6.2,13.2 L6.2,13.2 L3.60000001,13.2 C3.52,13.2 3.36000001,13.2 3.28,13.12 C3.19999999,13.12 3.11999999,13.04 3.04,12.96 C2.96000001,12.88 2.88000001,12.8 2.88000001,12.72 C2.8,12.64 2.8,12.48 2.8,12.4 L2.8,9.80000001 C2.8,9.32000001 3.12000001,9 3.60000001,9 Z M12.4,9 C12.88,9 13.2,9.32000001 13.2,9.80000001 L13.2,12.4 C13.2,12.48 13.2,12.64 13.12,12.72 C13.12,12.8 13.04,12.88 12.96,12.96 C12.88,13.04 12.8,13.12 12.72,13.12 C12.64,13.2 12.48,13.2 12.4,13.2 L9.80000001,13.2 C9.32000001,13.2 9,12.88 9,12.4 C9,11.92 9.32000001,11.6 9.80000001,11.6 L11.6,11.6 L11.6,9.80000001 C11.6,9.32000001 11.92,9 12.4,9 Z M6.2,2.8 C6.68,2.8 7.00000001,3.12000001 7.00000001,3.60000001 C7.00000001,4.08000001 6.68,4.40000001 6.2,4.40000001 L4.40000001,4.40000001 L4.40000001,6.2 C4.40000001,6.68 4.08000001,7.00000001 3.60000001,7.00000001 C3.12000001,7.00000001 2.8,6.68 2.8,6.2 L2.8,3.60000001 C2.8,3.52 2.8,3.36000001 2.88000001,3.28 C2.88000001,3.19999999 2.96000001,3.12000001 3.04,3.04 C3.11999999,2.95999999 3.19999999,2.88000001 3.28,2.88000001 C3.344,2.816 3.4592,2.8032 3.54368,2.80064 L6.2,2.8 Z M12.45632,2.80064 C12.5408,2.8032 12.656,2.816 12.72,2.88000001 C12.8,2.88000001 12.88,2.95999999 12.96,3.04 C13.04,3.12000001 13.12,3.19999999 13.12,3.28 C13.2,3.36000001 13.2,3.52 13.2,3.60000001 L13.2,3.60000001 L13.2,6.2 C13.2,6.68 12.88,7.00000001 12.4,7.00000001 C11.92,7.00000001 11.6,6.68 11.6,6.2 L11.6,6.2 L11.6,4.40000001 L9.80000001,4.40000001 C9.32000001,4.40000001 9,4.08000001 9,3.60000001 C9,3.12000001 9.32000001,2.8 9.80000001,2.8 L9.80000001,2.8 Z" id="形状结合"></path>
                </g>
            </g>
        </g>
    </g>
</svg>